g Body_01
v 0.009915 -6.7082e-05 0.0015 0.137255 0.137255 0.909804
v 0.001075 -6.7082e-05 0.0015 0.137255 0.137255 0.909804
v 0.001075 -0.0059 0.0015 0.137255 0.137255 0.909804
v 0.009915 -0.0059 0.0015 0.137255 0.137255 0.909804
vn 0 0 1
vt 0.00887 -6.7082e-05
vt 3e-05 -6.7082e-05
vt 3e-05 -0.0059
vt 0.00887 -0.0059
f 1/1/1 2/2/1 3/3/1
f 3/3/1 4/4/1 1/1/1
v 0.009955 -0.0059 4e-05 0.494118 0.494118 0.52549
v 0.00989365 -0.00597648 3.5576e-05 0.494118 0.494118 0.52549
v 0.00990368 -0.00595845 1.88634e-05 0.494118 0.494118 0.52549
v 0.009915 -0.0059 0 0.494118 0.494118 0.52549
v 0.00991942 -0.00597648 6.13456e-05 0.494118 0.494118 0.52549
v 0.00991242 -0.00598187 6.55462e-05 0.494118 0.494118 0.52549
v 0.009855 -0.006 0.0001 0.494118 0.494118 0.52549
v 0.00108803 -0.00595811 1.86135e-05 0.494118 0.494118 0.52549
v 0.00109303 -0.005967 2.57617e-05 0.494118 0.494118 0.52549
v 0.001145 -0.006 0.0001 0.494118 0.494118 0.52549
v 0.001075 -0.0059 0 0.494118 0.494118 0.52549
v 0.009955 -4e-05 4e-05 0.494118 0.494118 0.52549
v 0.009915 -4e-05 0 0.494118 0.494118 0.52549
v 0.001075 -4e-05 0 0.494118 0.494118 0.52549
v 0.00107076 -0.005967 4.80332e-05 0.494118 0.494118 0.52549
v 0.00106361 -0.00595811 4.30294e-05 0.494118 0.494118 0.52549
v 0.001045 -0.0059 3e-05 0.494118 0.494118 0.52549
v 0.009855 -0.006 0.0014 0.494118 0.494118 0.52549
v 0.001145 -0.006 0.0014 0.494118 0.494118 0.52549
v 0.009915 0 4e-05 0.494118 0.494118 0.52549
v 0.009955 -4e-05 6e-05 0.494118 0.494118 0.52549
v 0.009955 -0.0059 6e-05 0.494118 0.494118 0.52549
v 0.009915 0 6e-05 0.494118 0.494118 0.52549
v 0.001075 0 4e-05 0.494118 0.494118 0.52549
v 0.001045 -0.00198667 3e-05 0.494118 0.494118 0.52549
v 0.001045 -0.00100833 3e-05 0.494118 0.494118 0.52549
v 0.001045 -0.002965 3e-05 0.494118 0.494118 0.52549
v 0.001045 -0.00394333 3e-05 0.494118 0.494118 0.52549
v 0.001045 -0.00492167 3e-05 0.494118 0.494118 0.52549
v 0.001045 -4e-05 3e-05 0.494118 0.494118 0.52549
v 0.001045 -3e-05 4e-05 0.494118 0.494118 0.52549
v 0.001045 -3e-05 6e-05 0.494118 0.494118 0.52549
v 0.001075 0 6e-05 0.494118 0.494118 0.52549
v 0.001045 -0.0059 7e-05 0.494118 0.494118 0.52549
v 0.001045 -0.00492167 7e-05 0.494118 0.494118 0.52549
v 0.001045 -0.00394333 7e-05 0.494118 0.494118 0.52549
v 0.001045 -0.002965 7e-05 0.494118 0.494118 0.52549
v 0.001045 -0.00198667 7e-05 0.494118 0.494118 0.52549
v 0.001045 -4e-05 7e-05 0.494118 0.494118 0.52549
v 0.001045 -0.00100833 7e-05 0.494118 0.494118 0.52549
v 0.001075 -4e-05 0.0001 0.494118 0.494118 0.52549
v 0.009915 -4e-05 0.0001 0.494118 0.494118 0.52549
v 0.009915 -0.0059 0.0001 0.494118 0.494118 0.52549
v 0.001075 -0.0059 0.0001 0.494118 0.494118 0.52549
v 0.00991188 -0.00598225 0.00143413 0.494118 0.494118 0.52549
v 0.009955 -0.0059 0.00144 0.494118 0.494118 0.52549
v 0.00993148 -0.00596442 0.00144589 0.494118 0.494118 0.52549
v 0.009955 -0.0059 0.00146 0.494118 0.494118 0.52549
v 0.00990089 -0.00596442 0.00147648 0.494118 0.494118 0.52549
v 0.00990392 -0.0059579 0.00148154 0.494118 0.494118 0.52549
v 0.009915 -0.0059 0.0015 0.494118 0.494118 0.52549
v 0.00109303 -0.005967 0.00147424 0.494118 0.494118 0.52549
v 0.00108803 -0.00595811 0.00148139 0.494118 0.494118 0.52549
v 0.001075 -0.0059 0.0015 0.494118 0.494118 0.52549
v 0.00107076 -0.005967 0.00145197 0.494118 0.494118 0.52549
v 0.00106361 -0.00595811 0.00145697 0.494118 0.494118 0.52549
v 0.001045 -0.0059 0.00143 0.494118 0.494118 0.52549
v 0.001045 -0.0059 0.00147 0.494118 0.494118 0.52549
v 0.009955 -6.7082e-05 0.00146 0.494118 0.494118 0.52549
v 0.009915 -6.7082e-05 0.0015 0.494118 0.494118 0.52549
v 0.001045 -6.7082e-05 0.00147 0.494118 0.494118 0.52549
v 0.001075 -6.7082e-05 0.0015 0.494118 0.494118 0.52549
v 0.001045 -5e-05 0.00143 0.494118 0.494118 0.52549
v 0.001045 -3.04096e-05 0.00144597 0.494118 0.494118 0.52549
v 0.00105111 -1.18882e-05 0.0014483 0.494118 0.494118 0.52549
v 0.00104876 -1.55304e-05 0.0014478 0.494118 0.494118 0.52549
v 0.00105358 -9.01797e-06 0.0014487 0.494118 0.494118 0.52549
v 0.0010712 -2.41194e-07 0.00144996 0.494118 0.494118 0.52549
v 0.00104518 -2.70129e-05 0.00144635 0.494118 0.494118 0.52549
v 0.001075 0 0.00145 0.494118 0.494118 0.52549
v 0.00104585 -2.30761e-05 0.00144682 0.494118 0.494118 0.52549
v 0.00104712 -1.90458e-05 0.00144734 0.494118 0.494118 0.52549
v 0.00106337 -2.34797e-06 0.00144966 0.494118 0.494118 0.52549
v 0.00105999 -4.02961e-06 0.00144942 0.494118 0.494118 0.52549
v 0.00106753 -9.45862e-07 0.00144986 0.494118 0.494118 0.52549
v 0.00105643 -6.4488e-06 0.00144907 0.494118 0.494118 0.52549
v 0.00106165 -3.22024e-06 0.00144982 0.494118 0.494118 0.52549
v 0.0010536 -9.52445e-06 0.00145028 0.494118 0.494118 0.52549
v 0.00105501 -8.02913e-06 0.00145007 0.494118 0.494118 0.52549
v 0.00106365 -2.24304e-06 0.00144972 0.494118 0.494118 0.52549
v 0.00106169 -3.14796e-06 0.00144965 0.494118 0.494118 0.52549
v 0.0099334 -4.48964e-06 0.00144935 0.494118 0.494118 0.52549
v 0.00992811 -2.21192e-06 0.00144968 0.494118 0.494118 0.52549
v 0.00994563 -1.43318e-05 0.00144797 0.494118 0.494118 0.52549
v 0.00994219 -1.0696e-05 0.00144847 0.494118 0.494118 0.52549
v 0.0099377 -7.07741e-06 0.00144898 0.494118 0.494118 0.52549
v 0.0099183 -1.36088e-07 0.00144998 0.494118 0.494118 0.52549
v 0.009915 0 0.00145 0.494118 0.494118 0.52549
v 0.00992323 -8.56411e-07 0.00144988 0.494118 0.494118 0.52549
v 0.009955 -4.12227e-05 0.00144521 0.494118 0.494118 0.52549
v 0.00995453 -3.4518e-05 0.00144558 0.494118 0.494118 0.52549
v 0.00994863 -1.84438e-05 0.00144741 0.494118 0.494118 0.52549
v 0.00995312 -2.82138e-05 0.00144621 0.494118 0.494118 0.52549
v 0.00995131 -2.3422e-05 0.00144678 0.494118 0.494118 0.52549
v 0.00993769 -7.16627e-06 0.00144929 0.494118 0.494118 0.52549
v 0.00993801 -7.31597e-06 0.00144902 0.494118 0.494118 0.52549
v 0.00992327 -8.78554e-07 0.00144992 0.494118 0.494118 0.52549
v 0.00995143 -2.40039e-05 0.00144757 0.494118 0.494118 0.52549
v 0.00995119 -2.32198e-05 0.00144699 0.494118 0.494118 0.52549
v 0.009955 -5e-05 0.00144 0.494118 0.494118 0.52549
v 0.009915 -5e-05 0.0014 0.494118 0.494118 0.52549
v 0.001075 -5e-05 0.0014 0.494118 0.494118 0.52549
v 0.00104589 -2.29644e-05 0.00144669 0.494118 0.494118 0.52549
v 0.00105095 -1.21094e-05 0.00144819 0.494118 0.494118 0.52549
v 0.00106721 -1.02824e-06 0.00144981 0.494118 0.494118 0.52549
v 0.00104876 -1.55886e-05 0.00144691 0.494118 0.494118 0.52549
v 0.009915 -0.0059 0.0014 0.494118 0.494118 0.52549
v 0.001075 -0.0059 0.0014 0.494118 0.494118 0.52549
v 0.001126 -0.0059 0.0014 0.494118 0.494118 0.52549
v 0.001126 -0.0059 0.0001 0.494118 0.494118 0.52549
v 0.009874 -0.0059 0.0014 0.494118 0.494118 0.52549
v 0.009874 -0.0059 0.0001 0.494118 0.494118 0.52549
v 0.001126 -0.0001 0.0014 0.494118 0.494118 0.52549
v 0.009874 -0.0001 0.0014 0.494118 0.494118 0.52549
v 0.009874 -0.0001 0.0001 0.494118 0.494118 0.52549
v 0.001126 -0.0001 0.0001 0.494118 0.494118 0.52549
vn 1 0 0
vn 0 -0.764824 -0.64424
vn 0 -0.584538 -0.811366
vn 0 0 -1
vn 0.64424 -0.764824 0
vn 0.57423 -0.818694 0
vn 0 -1 0
vn 0 0 -1
vn 0 -0.584538 -0.811366
vn 0 -0.581053 -0.813865
vn 0 -0.764824 -0.64424
vn 0 -1 1.83697e-16
vn 0 -0.669976 -0.742383
vn -0 0 -1
vn 1 0 6.12323e-17
vn 0 -0.581053 -0.813865
vn -0.742383 -0.669976 0
vn -0.813865 -0.581053 0
vn 0 0 -1
vn 0 -0.669976 -0.742383
vn -1 0 0
vn 0 -1 0
vn 1 0 0
vn 0 0 -1
vn 0 1 -6.12323e-17
vn 1 -0 0
vn 0 1.22465e-16 -1
vn -1 0 2.25875e-16
vn 0 1 6.12323e-17
vn 0 6.12323e-17 -1
vn -1 3.7494e-33 -6.12323e-17
vn -1.44941e-14 1 0
vn 0 0 1
vn -1 -1.60812e-16 -9.84691e-33
vn 0 1 0
vn 1 0 0
vn 4.33681e-14 6.12323e-17 1
vn 0 1 6.12323e-17
vn 1 0 -6.12323e-17
vn 1.22465e-16 0 1
vn -1 0 0
vn 0.57423 -0.818694 0
vn 0.568817 -0.822464 0
vn 1.83697e-16 -1 0
vn 1 1.22465e-16 0
vn 0.764824 -0.64424 0
vn 0.64424 -0.764824 0
vn 1 -8.75932e-15 0
vn 0 -1 0
vn 0 -0.64424 0.764824
vn 0.568817 -0.822464 0
vn 0.764824 -0.64424 0
vn 1 0 0
vn 0 -0.578962 0.815354
vn 0 0 1
vn 0 -0.669976 0.742383
vn -0 -1 -1.83697e-16
vn 0 -0.64424 0.764824
vn 0 -0.578962 0.815354
vn 0 -0.581053 0.813865
vn 0 -1 0
vn 0 0 1
vn -0.742383 -0.669976 0
vn 0 -1 0
vn -0.813865 -0.581053 0
vn -1 0 0
vn 0 -0.669976 0.742383
vn 0 -0.581053 0.813865
vn -1 0 0
vn -0.742383 -0.669976 0
vn 0 0 1
vn 0 -1 0
vn 1 -0 -6.12323e-17
vn 4.36432e-14 0 1
vn -1 0 -1.83697e-16
vn -0.44492 0.855319 0.265471
vn -0.796236 0.574235 0.190427
vn -0.874709 0.458098 0.15821
vn -0.714062 0.666361 0.214661
vn 1.4456e-14 0 1
vn -0.126547 0.950467 0.283897
vn -0.713262 0.661052 0.232954
vn -0.994022 0.101093 0.0412435
vn -1 -1.57244e-15 -6.84889e-16
vn 0 0.958315 0.285714
vn -0.666264 0.706039 0.240003
vn -0.971502 0.221409 0.0846291
vn -1 0 -3.71353e-15
vn -0.929447 0.347047 0.125245
vn -0.387725 0.882001 0.267849
vn -0.500384 0.827461 0.254801
vn -0.378242 0.885655 0.269348
vn -0.2491 0.927551 0.278565
vn -0.619025 0.749194 0.235621
vn -0.443613 0.856658 0.263334
vn 0.567206 0.783966 0.25234
vn 0.575183 0.779486 0.248125
vn 0.460084 0.848267 0.262231
vn 0.327852 0.904048 0.274243
vn 0.765738 0.608807 0.207362
vn 0.679856 0.696912 0.228274
vn 0.567508 0.785034 0.248307
vn 0 -7.21645e-16 1
vn 0.0824175 0.954974 0.285014
vn 0 0.958315 0.285714
vn 1 2.09541e-31 6.12323e-17
vn 0.206768 0.936895 0.281911
vn 0.205802 0.937293 0.281294
vn 1 1.58396e-15 9.3156e-16
vn 0.910687 0.382502 0.156019
vn 0.988303 0.137563 0.0658241
vn 0.904764 0.39717 0.15381
vn 0.84067 0.509852 0.182551
vn 0.953044 0.279498 0.11657
vn 0.90784 0.391411 0.150409
vn 1 -0 0
vn 0 0 -1
vn 0.953044 0.298354 -0.0518923
vn 0.988303 0.146646 -0.0418482
vn 1 1.02822e-15 -5.61314e-16
vn 0.90784 0.416267 -0.0504723
vn 0.84067 0.53974 -0.0442174
vn 0.765738 0.64211 -0.0366003
vn 0.679856 0.73279 -0.0285391
vn 0.567508 0.823135 -0.0195694
vn 0.460084 0.887785 -0.0126872
vn 0.327852 0.944708 -0.00635826
vn 0.205802 0.978591 -0.00248493
vn 0.0824175 0.996598 -0.00039675
vn 0 1 0
vn 1 -0 4.6017e-15
vn -0.970466 0.239454 -0.029292
vn -0.994022 0.107829 -0.0171345
vn -0.971502 0.235396 -0.0277999
vn -0.929447 0.367596 -0.0316398
vn -0.801655 0.597109 -0.0284488
vn -0.874709 0.483668 -0.0308134
vn -0.796236 0.604387 -0.0269069
vn -0.714062 0.699734 -0.0221152
vn -0.619025 0.785192 -0.0167837
vn -0.2491 0.968474 -0.0027207
vn -0.126547 0.99196 -0.000701272
vn -0.25952 0.96573 -0.00380019
vn -0.387725 0.921751 -0.0066027
vn 0 -8.04912e-16 -1
vn -1 3.75325e-30 1.27104e-15
vn -0.500384 0.865733 -0.0110019
vn 0 1 6.12323e-17
vn -1 -5.64689e-16 1.12938e-16
vn -0.874521 0.483047 -0.0433383
vn 0 0.958315 0.285714
vn 0 1.22465e-16 1
vn 1 0 6.12323e-17
vn 1.22465e-16 -0 -1
vn -1 0 1.83697e-16
vn 0 1 6.12323e-17
vn 0 1.22465e-16 -1
vn -0 -0 1
vn -1 0 0
vn 1 0 0
vn 0 1 0
vt 6.28319 0
vt 7.15395 1
vt 6.9075 1
vt 6.28319 1
vt 7.15395 0
vt 7.24232 0
vt 7.85398 0.5
vt 6.28319 0.00887
vt 5.65887 0.00885868
vt 5.66316 4.30294e-05
vt 5.41242 0.00884865
vt 4.71239 0.00881
vt 5.54901 4.80332e-05
vt 4.71239 0.0001
vt 6.28319 3e-05
vt 1.5708 -4e-05
vt 1.5708 -0.0059
vt 3.14159 -0.0059
vt 3.14159 -4e-05
vt 3e-05 -4e-05
vt 0.00887 -4e-05
vt 0.00887 -0.0059
vt 3e-05 -0.0059
vt 2.52157 1
vt 2.40742 2.29861e-17
vt 2.52157 0
vt 3.14159 1
vt 2.40742 1
vt 3.14159 2.29861e-17
vt 1.5708 0.5
vt 0.0014 -0.004355
vt 0.0014 0.004355
vt 0.0001 0.004355
vt 0.0001 -0.004355
vt 0.785398 1.5708
vt 0 0
vt 1.5708 0
vt 0.00146 0.00296
vt 0.00144 0.00296
vt 0.00144 -0.0029
vt 0.00146 -0.0029
vt 1.5708 0.00146
vt 1.5708 0.00144
vt 3.14159 0.00144
vt 3.14159 0.00146
vt 1.5708 -3e-05
vt 1.5708 -0.00887
vt 3.14159 -0.00887
vt 3.14159 -3e-05
vt 6.28319 4e-05
vt 4.71239 0.00198667
vt 4.71239 0.00100833
vt 4.71239 0.002965
vt 6.28319 0.0059
vt 4.71239 0.00394333
vt 4.71239 0.00492167
vt 4.71239 0.0059
vt 4.71239 4e-05
vt 1.5708 1.5708
vt 1.5708 0
vt 3.14159 0
vt 3.14159 1.5708
vt 0 0.00146
vt 0 0.00144
vt 1.5708 0.00144
vt 1.5708 0.00146
vt -0.00147 -0.00192167
vt -0.00147 -0.0029
vt -0.00143 -0.0029
vt -0.00147 -0.000943333
vt -0.00143 -0.00192167
vt -0.00147 3.5e-05
vt -0.00143 -0.000943333
vt -0.00147 0.00101333
vt -0.00143 3.5e-05
vt -0.00147 0.00199167
vt -0.00143 0.00101333
vt -0.00143 0.00296
vt -0.00147 0.00296
vt -0.00144 0.00297
vt -0.00146 0.00297
vt -0.00143 0.00199167
vt 0 1.5708
vt 0 0
vt 1.5708 0
vt 1.5708 1.5708
vt -0.00146 -0.004425
vt -0.00144 -0.004425
vt -0.00144 0.004415
vt -0.00146 0.004415
vt 2.35619 1.5708
vt 1.5708 4.33681e-14
vt 3.14159 4.33681e-14
vt 0 0.004425
vt 0 -0.004415
vt 1.5708 -0.004415
vt 1.5708 0.004425
vt 1.5708 0.00295
vt 1.5708 -0.00291
vt 3.14159 -0.00291
vt 3.14159 0.00295
vt 3.14159 0.0029
vt 4.71239 0.000943333
vt 4.71239 0.00192167
vt 3.14159 -0.00296
vt 4.71239 -3.5e-05
vt 4.71239 -0.00101333
vt 4.71239 -0.00199167
vt 4.71239 -0.00296
vt 4.71239 0.0029
vt 4.10073 0.00143445
vt 4.10732 6.5871e-05
vt 4.71239 0.0001
vt 3.14159 6e-05
vt 3.84162 5.41106e-05
vt 4.01236 0.00143865
vt 3.14159 0.00144
vt 3.14159 4e-05
vt 3.14159 0.00146
vt 4.71239 0.0014
vt 2.44156 1
vt 1.5708 0.5
vt 2.17586 0
vt 2.44156 0
vt 3.14159 0
vt 2.52414 1
vt 3.14159 1
vt 5.54901 0.00440697
vt 4.71239 0.004355
vt 5.58316 -0.00440089
vt 5.66573 -0.00440392
vt 5.66316 0.00441197
vt 4.71239 -0.004355
vt 6.28319 -0.004415
vt 6.28319 0.004425
vt 5.54901 0.00145197
vt 4.71239 0.0001
vt 5.54901 4.80332e-05
vt 5.66316 0.00145697
vt 5.66316 4.30294e-05
vt 4.71239 0.0014
vt 6.28319 7e-05
vt 6.28319 0.00143
vt 6.28319 3e-05
vt 6.28319 0.00147
vt 2.52157 1
vt 2.40742 0
vt 2.52157 0
vt 3.14159 1
vt 2.40742 1
vt 3.14159 0
vt 1.5708 0.5
vt 1.5708 0.0029
vt 1.5708 -0.00293292
vt 3.14159 -0.00293292
vt 3.14159 0.0029
vt 4.71239 0.00293292
vt 4.71239 -0.0029
vt 6.28319 -0.0029
vt 6.28319 0.00293292
vt -7e-05 -0.0029
vt -3e-05 -0.0029
vt -3e-05 0.00293292
vt -7e-05 0.00295
vt -5.40271e-05 0.00296959
vt 1.26985 0.461085
vt 1.25059 0.921048
vt 1.23826 1.06484
vt 1.25915 0.795283
vt 0 -1.4456e-14
vt 1.28054 0.126887
vt 1.23199 0.794142
vt 1.18343 1.4614
vt 1.16002 1.5708
vt 1.28104 0
vt 1.24312 0.729187
vt 1.2057 1.33149
vt 0 1.5708
vt 1.22445 1.19291
vt 1.27596 0.398162
vt 1.27208 0.524043
vt 1.27556 0.387897
vt 1.27904 0.251751
vt 1.26609 0.6675
vt 1.27257 0.459626
vt 1.8822 0.603109
vt 1.87897 0.612828
vt 1.87061 0.47809
vt 1.86532 0.334029
vt 1.89908 0.872189
vt 1.88733 0.747567
vt 1.87714 0.603476
vt 3.14159 0
vt 1.86083 0.082511
vt 1.86055 0
vt 3.14159 1.5708
vt 1.86308 0.20827
vt 1.86236 0.207283
vt 2.10244 1.5708
vt 1.95809 1.14494
vt 2.0171 1.4177
vt 1.94028 1.13083
vt 1.91462 0.998519
vt 1.96593 1.26313
vt 1.93767 1.1381
vt 6e-05 -0.0029
vt 6e-05 0.00295
vt 4e-05 0.00293292
vt 5.47916e-05 0.00295878
vt 4e-05 -0.0029
vt 0 0
vt 1.39859 1.26313
vt 1.29282 1.4177
vt 1.0711 1.5708
vt 1.45014 1.1381
vt 1.48906 0.998519
vt 1.51386 0.872189
vt 1.53187 0.747567
vt 1.54703 0.603476
vt 1.55651 0.47809
vt 1.56407 0.334029
vt 1.56826 0.207283
vt 1.5704 0.082511
vt 1.5708 0
vt 0 1.5708
vt 1.69252 1.32715
vt 1.72838 1.4614
vt 1.68835 1.33149
vt 1.65666 1.19291
vt 1.6184 0.930059
vt 1.63442 1.06484
vt 1.61529 0.921048
vt 1.60239 0.795283
vt 1.59217 0.6675
vt 1.57361 0.251751
vt 1.5715 0.126887
vt 1.57473 0.262525
vt 1.57796 0.398162
vt 3.14159 0
vt 3.14159 1.5708
vt 1.5835 0.524043
vt 1.5708 0
vt 1.77354 1.5708
vt 1.66028 1.06445
vt 1.86055 0.004415
vt 1.86055 -0.004425
vt 3.14159 -0.004425
vt 3.14159 0.004415
vt 1.5708 0.0029
vt 1.5708 -0.00295
vt 3.14159 -0.00295
vt 3.14159 0.0029
vt 4.71239 0.00295
vt 4.71239 -0.0029
vt 6.28319 -0.0029
vt 6.28319 0.00295
vt 1.5708 0.008799
vt 1.5708 -4.1e-05
vt 3.14159 -4.1e-05
vt 3.14159 0.008799
vt 0.00065 -5.1e-05
vt 0.00065 0
vt -0.00065 0
vt -0.00065 -5.1e-05
vt -0.00068 -8.1e-05
vt 0.00068 -8.1e-05
vt -0.00065 0
vt -0.00065 4.1e-05
vt 0.00065 4.1e-05
vt 0.00069 8.1e-05
vt 0.00065 0
vt -0.00069 8.1e-05
vt -0.008799 -0.00295
vt -0.008799 0.0029
vt -0.008748 0.00285
vt 4.1e-05 0.0029
vt 0 0.00285
vt 4.1e-05 -0.00295
vt 0 -0.00295
vt -0.008748 -0.00295
vt -4.1e-05 -0.00295
vt -4.1e-05 0.00291
vt 0 0.00285
vt 0.008799 0.00291
vt 0.008748 0.00285
vt 0.008799 -0.00295
vt 0.008748 -0.00295
vt 0 -0.00295
vt 0.0001 0.0001
vt 0.0059 0.0001
vt 0.0059 0.0014
vt 0.0001 0.0014
vt -0.0059 0.0014
vt -0.0059 0.0001
vt -0.0001 0.0001
vt -0.0001 0.0014
vt 0.0014 0.008829
vt 0.0001 0.008829
vt 0.0001 8.1e-05
vt 0.0014 8.1e-05
f 5/5/2 6/6/3 7/7/4
f 7/7/4 8/8/5 5/5/2
f 5/5/2 9/9/6 6/6/3
f 6/6/3 9/9/6 10/10/7
f 10/10/7 11/11/8 6/6/3
f 8/12/9 7/13/10 12/14/11
f 6/15/12 11/16/13 13/17/14
f 13/17/14 12/14/11 6/15/12
f 12/14/11 7/13/10 6/15/12
f 11/16/13 14/18/13 13/17/14
f 12/14/11 15/19/15 8/12/9
f 16/20/16 5/21/16 8/22/15
f 8/22/15 17/23/15 16/20/16
f 18/24/15 17/25/15 8/26/15
f 8/26/15 15/27/15 18/24/15
f 12/28/17 19/29/18 20/30/19
f 20/30/19 15/31/20 12/28/17
f 12/28/17 13/32/21 19/29/18
f 20/30/19 21/33/22 15/31/20
f 14/34/23 19/29/18 13/32/21
f 14/35/23 11/36/23 22/37/23
f 22/37/23 23/38/23 14/35/23
f 16/39/24 17/40/25 24/41/26
f 16/42/27 25/43/27 26/44/27
f 26/44/27 5/45/27 16/42/27
f 24/46/26 27/47/26 25/48/27
f 25/48/27 16/49/27 24/46/26
f 28/50/26 24/51/26 17/52/28
f 17/52/28 18/53/28 28/50/26
f 18/54/28 29/55/29 30/56/29
f 18/54/28 31/57/29 29/55/29
f 15/58/28 32/59/29 31/57/29
f 31/57/29 18/54/28 15/58/28
f 15/58/28 33/60/29 32/59/29
f 15/58/28 21/61/29 33/60/29
f 30/56/29 34/62/29 18/54/28
f 35/63/29 28/64/30 18/65/31
f 18/65/31 34/66/32 35/63/29
f 35/67/32 36/68/32 37/69/33
f 37/69/33 28/70/33 35/67/32
f 33/71/32 21/72/32 38/73/32
f 32/74/32 33/71/32 39/75/32
f 31/76/32 32/74/32 40/77/32
f 29/78/32 31/76/32 41/79/32
f 30/80/32 29/78/32 42/81/32
f 43/82/32 34/83/32 30/80/32
f 34/83/32 43/82/32 36/84/32
f 36/84/32 35/85/32 34/83/32
f 30/80/32 44/86/32 43/82/32
f 42/81/32 44/86/32 30/80/32
f 41/79/32 42/81/32 29/78/32
f 40/77/32 41/79/32 31/76/32
f 39/75/32 40/77/32 32/74/32
f 38/73/32 39/75/32 33/71/32
f 43/87/32 45/88/34 37/89/33
f 37/89/33 36/90/35 43/87/32
f 28/91/36 37/92/36 27/93/36
f 27/93/36 24/94/36 28/91/36
f 25/95/37 27/96/36 46/97/38
f 45/98/38 46/99/38 27/100/39
f 27/100/39 37/101/39 45/98/38
f 26/102/40 25/103/40 46/104/41
f 46/104/41 47/105/41 26/102/40
f 48/106/41 40/107/42 39/108/42
f 48/106/41 45/109/41 41/110/42
f 41/110/42 40/107/42 48/106/41
f 45/109/41 42/111/42 41/110/42
f 45/109/41 44/112/42 42/111/42
f 45/109/41 43/113/42 44/112/42
f 39/108/42 38/114/42 48/106/41
f 10/115/43 49/116/44 22/117/45
f 10/115/43 50/118/46 51/119/47
f 51/119/47 49/116/44 10/115/43
f 50/118/46 10/115/43 9/120/48
f 9/120/48 26/121/49 50/118/46
f 50/118/46 52/122/49 51/119/47
f 9/120/48 5/123/49 26/121/49
f 22/117/45 11/124/50 10/115/43
f 53/125/51 22/126/50 49/127/52
f 49/127/52 51/128/53 53/125/51
f 51/128/53 52/129/54 54/130/55
f 54/130/55 53/125/51 51/128/53
f 52/129/54 55/131/56 54/130/55
f 56/132/57 23/133/58 53/134/59
f 53/134/59 54/135/60 56/132/57
f 54/135/60 57/136/61 56/132/57
f 23/133/58 22/137/62 53/134/59
f 55/138/63 58/139/63 57/136/61
f 57/136/61 54/135/60 55/138/63
f 19/140/64 23/141/65 59/142/64
f 59/142/64 20/143/66 19/140/64
f 59/142/64 60/144/66 20/143/66
f 19/140/64 14/145/65 23/141/65
f 60/144/66 61/146/67 38/147/67
f 38/147/67 20/143/66 60/144/66
f 60/144/66 62/148/67 61/146/67
f 38/147/67 21/149/67 20/143/66
f 60/150/66 56/151/68 57/152/69
f 57/152/69 62/153/70 60/150/66
f 60/150/66 59/154/71 56/151/68
f 57/152/69 58/155/72 62/153/70
f 23/156/73 56/151/68 59/154/71
f 52/157/74 63/158/74 64/159/75
f 64/159/75 55/160/75 52/157/74
f 65/161/76 62/162/76 58/163/75
f 58/163/75 66/164/75 65/161/76
f 61/165/76 62/166/76 65/167/76
f 65/167/76 67/168/76 61/165/76
f 65/167/76 68/169/76 67/168/76
f 81/170/77 69/171/78 70/172/79
f 81/170/77 71/173/80 69/171/78
f 66/174/81 72/175/82 82/176/83
f 82/176/83 73/177/84 66/174/81
f 73/177/84 68/178/85 66/174/81
f 66/174/81 74/179/86 72/175/82
f 82/176/83 83/180/87 75/181/88
f 75/181/88 73/177/84 82/176/83
f 82/176/83 72/175/82 83/180/87
f 68/178/85 65/182/89 66/174/81
f 83/180/87 72/175/82 81/170/77
f 81/170/77 76/183/90 83/180/87
f 76/183/90 75/181/88 83/180/87
f 70/172/79 76/183/90 81/170/77
f 77/184/91 78/185/92 84/186/93
f 84/186/93 79/187/94 77/184/91
f 84/186/93 80/188/95 85/189/96
f 85/189/96 79/187/94 84/186/93
f 81/170/77 85/189/96 80/188/95
f 80/188/95 71/173/80 81/170/77
f 81/170/77 72/175/82 79/187/94
f 79/187/94 85/189/96 81/170/77
f 84/186/93 78/185/92 80/188/95
f 99/190/97 100/191/98 86/192/99
f 86/192/99 87/193/100 99/190/97
f 99/190/97 88/194/101 89/195/102
f 89/195/102 100/191/98 99/190/97
f 90/196/103 86/192/99 100/191/98
f 100/191/98 89/195/102 90/196/103
f 64/197/104 99/190/97 91/198/105
f 91/198/105 92/199/106 64/197/104
f 64/197/104 63/200/107 99/190/97
f 99/190/97 101/201/108 91/198/105
f 99/190/97 87/193/100 101/201/108
f 93/202/109 91/198/105 101/201/108
f 101/201/108 87/193/100 93/202/109
f 63/200/107 94/203/110 102/204/111
f 102/204/111 99/190/97 63/200/107
f 94/203/110 95/205/112 102/204/111
f 102/204/111 88/194/101 99/190/97
f 102/204/111 103/206/113 96/207/114
f 96/207/114 88/194/101 102/204/111
f 102/204/111 95/205/112 97/208/115
f 97/208/115 103/206/113 102/204/111
f 103/206/113 97/208/115 98/209/116
f 98/209/116 96/207/114 103/206/113
f 50/210/117 104/211/117 63/212/117
f 104/211/117 94/213/117 63/212/117
f 63/212/117 52/214/117 50/210/117
f 105/215/118 97/216/119 95/217/120
f 95/217/120 94/218/121 105/215/118
f 105/215/118 98/219/122 97/216/119
f 105/215/118 96/220/123 98/219/122
f 105/215/118 88/221/124 96/220/123
f 105/215/118 89/222/125 88/221/124
f 105/215/118 90/223/126 89/222/125
f 105/215/118 86/224/127 90/223/126
f 105/215/118 87/225/128 86/224/127
f 105/215/118 93/226/129 87/225/128
f 105/215/118 91/227/130 93/226/129
f 105/215/118 92/228/131 91/227/130
f 94/218/121 104/229/132 105/215/118
f 107/230/133 73/231/134 75/232/135
f 75/232/135 76/233/136 107/230/133
f 108/234/137 70/235/138 69/236/139
f 69/236/139 71/237/140 108/234/137
f 76/233/136 108/234/137 80/238/141
f 80/238/141 107/230/133 76/233/136
f 108/234/137 71/237/140 80/238/141
f 76/233/136 70/235/138 108/234/137
f 79/239/142 72/240/143 109/241/144
f 109/241/144 77/242/145 79/239/142
f 106/243/146 67/244/147 78/245/148
f 78/245/148 72/240/143 106/243/146
f 72/240/143 74/246/149 106/243/146
f 78/245/148 109/241/144 72/240/143
f 78/245/148 77/242/145 109/241/144
f 67/244/147 68/247/150 110/248/151
f 110/248/151 78/245/148 67/244/147
f 68/247/150 73/231/134 110/248/151
f 110/248/151 80/238/141 78/245/148
f 110/248/151 73/231/134 107/230/133
f 107/230/133 80/238/141 110/248/151
f 92/249/152 74/250/152 66/251/153
f 66/251/153 64/252/153 92/249/152
f 104/253/154 50/254/154 111/255/155
f 111/255/155 105/256/155 104/253/154
f 61/257/156 67/258/156 106/259/155
f 106/259/155 112/260/155 61/257/156
f 74/261/157 92/262/157 105/263/158
f 105/263/158 106/264/158 74/261/157
f 112/265/157 113/266/157 114/267/157
f 114/267/157 48/268/157 112/265/157
f 38/269/157 61/270/157 112/265/157
f 48/268/157 38/269/157 112/265/157
f 115/271/157 111/272/157 47/273/157
f 111/272/157 26/274/157 47/273/157
f 47/273/157 116/275/157 115/271/157
f 111/272/157 50/276/157 26/274/157
f 112/277/158 106/278/158 117/279/158
f 105/280/158 118/281/158 117/279/158
f 117/279/158 106/278/158 105/280/158
f 111/282/158 115/283/158 118/281/158
f 118/281/158 105/280/158 111/282/158
f 117/279/158 113/284/158 112/277/158
f 47/285/159 46/286/159 119/287/159
f 46/286/159 45/288/159 120/289/159
f 120/289/159 119/287/159 46/286/159
f 48/290/159 114/291/159 120/289/159
f 120/289/159 45/288/159 48/290/159
f 119/287/159 116/292/159 47/285/159
f 120/293/160 114/294/160 113/295/160
f 113/295/160 117/296/160 120/293/160
f 115/297/161 116/298/161 119/299/161
f 119/299/161 118/300/161 115/297/161
f 118/301/162 119/302/162 120/303/162
f 120/303/162 117/304/162 118/301/162
